<svg xmlns="http://www.w3.org/2000/svg" xmlns:xlink="http://www.w3.org/1999/xlink" width="100" height="100" viewBox="0 0 100 100"><rect width="100%" height="100%" fill="#000000"></rect><g transform="translate(50 50) scale(0.69 0.69) rotate(0) translate(-50 -50)" style="fill:#FFFFFF"><svg fill="#FFFFFF" xmlns="http://www.w3.org/2000/svg" xmlns:xlink="http://www.w3.org/1999/xlink" version="1.1" x="0px" y="0px" viewBox="0 0 100 100" enable-background="new 0 0 100 100" xml:space="preserve"><g><path d="M85.942,79.926c-0.678-0.279-1.397-0.424-2.143-0.424c-2.379,0-4.572,1.448-5.458,3.602l-0.152,0.372l-18.045-7.319   l18.045-7.319l0.155,0.374c0.883,2.155,3.074,3.601,5.453,3.601c0.741,0,1.463-0.14,2.143-0.418   c1.441-0.594,2.565-1.71,3.166-3.145c0.603-1.436,0.608-3.021,0.019-4.458c-0.578-1.401-1.662-2.506-3.058-3.116l-0.356-0.156   l0.143-0.366c0.565-1.414,0.561-2.963-0.009-4.357c-0.883-2.153-3.08-3.6-5.461-3.6c-0.746,0-1.465,0.143-2.146,0.423   c-2.968,1.221-4.392,4.63-3.174,7.599l0.155,0.378L49.744,71.93L24.268,61.595l0.155-0.378c1.218-2.97-0.208-6.38-3.18-7.599   c-0.677-0.278-1.399-0.422-2.141-0.422c-2.383,0-4.577,1.447-5.46,3.599c-0.575,1.396-0.58,2.945-0.014,4.357l0.146,0.366   l-0.357,0.156c-1.396,0.614-2.482,1.722-3.056,3.116c-0.587,1.438-0.582,3.022,0.02,4.458c0.601,1.437,1.724,2.553,3.159,3.141   c0.683,0.28,1.405,0.423,2.151,0.423c2.376,0,4.568-1.446,5.453-3.602l0.152-0.374l18.041,7.319l-18.041,7.319l-0.152-0.372   c-0.886-2.155-3.077-3.604-5.453-3.604c-0.747,0-1.469,0.145-2.149,0.426c-1.435,0.589-2.558,1.704-3.159,3.143   c-0.603,1.438-0.609,3.021-0.021,4.456c0.574,1.397,1.66,2.503,3.055,3.111l0.358,0.16l-0.146,0.363   c-0.564,1.417-0.559,2.967,0.014,4.36c0.883,2.155,3.077,3.601,5.46,3.601c0.742,0,1.464-0.138,2.141-0.419   c2.972-1.222,4.398-4.636,3.18-7.604l-0.155-0.378L49.744,80.39L75.22,90.719l-0.155,0.378c-1.221,2.967,0.204,6.38,3.177,7.606   c0.676,0.275,1.392,0.415,2.13,0.415c0.004,0,0.004,0,0.004,0c2.386,0,4.587-1.446,5.473-3.599   c0.568-1.396,0.571-2.943,0.009-4.361l-0.146-0.365l0.356-0.157c1.397-0.608,2.483-1.714,3.06-3.111   C90.343,84.549,88.913,81.142,85.942,79.926z"></path></g><g><path d="M36.552,51.627v9.311h4.171v-3.797h3.206v3.797h4.204v-3.797h3.206v3.797h4.227v-3.686h3.205v3.686h4.16v-9.311h7.055   v-7.229c3.832-4.569,6.143-10.449,6.143-16.871c0-14.54-11.816-26.353-26.383-26.353c-14.567,0-26.384,11.813-26.384,26.353   c0,6.412,2.305,12.285,6.125,16.853v7.248H36.552z M60.458,27.381c4.061,0,7.348,3.282,7.348,7.339s-3.287,7.345-7.348,7.345   c-4.064,0-7.353-3.288-7.353-7.345S56.394,27.381,60.458,27.381z M53.795,48.708h-8.12l4.063-9.377L53.795,48.708z M39.017,27.381   c4.059,0,7.353,3.282,7.353,7.339s-3.294,7.345-7.353,7.345c-4.06,0-7.354-3.288-7.354-7.345S34.957,27.381,39.017,27.381z"></path></g></svg></g></svg>